<svg xmlns="http://www.w3.org/2000/svg" width="800" height="500" viewBox="0 0 800 500" role="img" aria-label="Fleet Tracking System placeholder cover">
  <rect width="800" height="500" fill="#1F4E46"/>
  <g fill="none" stroke="#F7F9F8" stroke-opacity="0.25" stroke-width="1.5">
    <path d="M-40 380 C 120 300, 240 420, 400 350 S 700 280, 840 360"/>
    <path d="M-40 330 C 140 260, 260 380, 420 310 S 720 240, 840 310"/>
    <path d="M-40 280 C 160 220, 280 340, 440 270 S 740 200, 840 260"/>
    <path d="M-40 230 C 180 180, 300 300, 460 230 S 760 160, 840 210"/>
    <path d="M-40 180 C 200 140, 320 260, 480 190 S 780 120, 840 160"/>
    <circle cx="620" cy="150" r="46"/>
    <circle cx="620" cy="150" r="72"/>
    <circle cx="620" cy="150" r="100"/>
  </g>
  <circle cx="620" cy="150" r="6" fill="#F7F9F8" fill-opacity="0.6"/>
</svg>
